<svg width="412" height="106" viewBox="0 0 412 106" fill="none" xmlns="http://www.w3.org/2000/svg">
<path d="M21 69.3044V21.8141H37.2146C42.7777 21.8141 47.3458 22.8092 50.9189 24.7992C54.5372 26.7441 57.2057 29.503 58.9244 33.0761C60.6883 36.604 61.5703 40.765 61.5703 45.5593C61.5703 50.3535 60.6883 54.5372 58.9244 58.1103C57.2057 61.6382 54.5372 64.3971 50.9189 66.3872C47.3458 68.332 42.7777 69.3044 37.2146 69.3044H21ZM29.6839 61.8417H36.8075C40.7876 61.8417 43.931 61.2085 46.2377 59.9421C48.5444 58.6304 50.1952 56.7761 51.1903 54.3789C52.1853 51.9366 52.6828 48.9967 52.6828 45.5593C52.6828 42.1671 52.1853 39.2499 51.1903 36.8075C50.1952 34.3651 48.5444 32.4881 46.2377 31.1765C43.931 29.8649 40.7876 29.209 36.8075 29.209H29.6839V61.8417Z" fill="#8E0077"/>
<path d="M80.63 70.1186C77.7354 70.1186 75.3609 69.6663 73.5065 68.7617C71.6521 67.8119 70.2726 66.5681 69.3681 65.0303C68.4635 63.4925 68.0112 61.7965 68.0112 59.9421C68.0112 56.8213 69.2324 54.2885 71.6747 52.3436C74.1171 50.3988 77.7806 49.4264 82.6653 49.4264H91.2136V48.6122C91.2136 46.3056 90.5578 44.6095 89.2461 43.524C87.9345 42.4385 86.3063 41.8957 84.3614 41.8957C82.5975 41.8957 81.0597 42.3254 79.7481 43.1848C78.4364 43.9989 77.6223 45.2201 77.3057 46.8483H68.8253C69.0514 44.4059 69.8656 42.2802 71.2677 40.471C72.715 38.6619 74.5694 37.2824 76.8308 36.3326C79.0923 35.3376 81.6251 34.84 84.4293 34.84C89.2235 34.84 93.0001 36.0386 95.7591 38.4357C98.5181 40.8329 99.8975 44.225 99.8975 48.6122V69.3044H92.5026L91.6885 63.877C90.6935 65.6861 89.2914 67.1787 87.4822 68.3546C85.7183 69.5306 83.4342 70.1186 80.63 70.1186ZM82.5975 63.3342C85.0851 63.3342 87.0073 62.5201 88.3642 60.8919C89.7663 59.2636 90.6482 57.251 91.0101 54.8538H83.6151C81.3085 54.8538 79.6576 55.2835 78.6626 56.1428C77.6675 56.957 77.17 57.9746 77.17 59.1958C77.17 60.5074 77.6675 61.5251 78.6626 62.2487C79.6576 62.9724 80.9693 63.3342 82.5975 63.3342Z" fill="#8E0077"/>
<path d="M108.184 84.23V35.6542H115.919L116.868 40.471C117.954 38.9785 119.379 37.6668 121.143 36.5361C122.952 35.4054 125.281 34.84 128.13 34.84C131.296 34.84 134.123 35.6089 136.611 37.1467C139.098 38.6845 141.066 40.7876 142.513 43.4561C143.961 46.1246 144.684 49.155 144.684 52.5471C144.684 55.9393 143.961 58.9696 142.513 61.6382C141.066 64.2614 139.098 66.342 136.611 67.8797C134.123 69.3723 131.296 70.1186 128.13 70.1186C125.598 70.1186 123.381 69.6437 121.482 68.6939C119.582 67.744 118.044 66.4098 116.868 64.6911V84.23H108.184ZM126.299 62.5201C129.058 62.5201 131.342 61.5929 133.151 59.7385C134.96 57.8842 135.865 55.487 135.865 52.5471C135.865 49.6073 134.96 47.1875 133.151 45.2879C131.342 43.3883 129.058 42.4385 126.299 42.4385C123.494 42.4385 121.188 43.3883 119.379 45.2879C117.615 47.1423 116.733 49.5394 116.733 52.4793C116.733 55.4192 117.615 57.8389 119.379 59.7385C121.188 61.5929 123.494 62.5201 126.299 62.5201Z" fill="#8E0077"/>
<path d="M152.442 84.23V35.6542H160.176L161.126 40.471C162.211 38.9785 163.636 37.6668 165.4 36.5361C167.209 35.4054 169.538 34.84 172.388 34.84C175.554 34.84 178.38 35.6089 180.868 37.1467C183.356 38.6845 185.323 40.7876 186.77 43.4561C188.218 46.1246 188.941 49.155 188.941 52.5471C188.941 55.9393 188.218 58.9696 186.77 61.6382C185.323 64.2614 183.356 66.342 180.868 67.8797C178.38 69.3723 175.554 70.1186 172.388 70.1186C169.855 70.1186 167.639 69.6437 165.739 68.6939C163.839 67.744 162.302 66.4098 161.126 64.6911V84.23H152.442ZM170.556 62.5201C173.315 62.5201 175.599 61.5929 177.408 59.7385C179.217 57.8842 180.122 55.487 180.122 52.5471C180.122 49.6073 179.217 47.1875 177.408 45.2879C175.599 43.3883 173.315 42.4385 170.556 42.4385C167.752 42.4385 165.445 43.3883 163.636 45.2879C161.872 47.1423 160.99 49.5394 160.99 52.4793C160.99 55.4192 161.872 57.8389 163.636 59.7385C165.445 61.5929 167.752 62.5201 170.556 62.5201Z" fill="#8E0077"/>
<path d="M224.127 69.3044V28.802H210.287V21.8141H246.718V28.802H232.811V69.3044H224.127Z" fill="#8E0077"/>
<path d="M322.409 70.1186C317.931 70.1186 314.019 69.1009 310.672 67.0656C307.325 65.0303 304.724 62.2035 302.87 58.5852C301.016 54.9217 300.088 50.6701 300.088 45.8307C300.088 40.9459 301.038 36.6492 302.938 32.9404C304.883 29.1864 307.619 26.2692 311.147 24.1886C314.72 22.0629 318.949 21 323.833 21C329.397 21 334.01 22.3343 337.674 25.0028C341.337 27.6713 343.712 31.3574 344.797 36.0612H335.095C334.372 33.845 333.06 32.1263 331.161 30.9051C329.261 29.6387 326.819 29.0055 323.833 29.0055C319.084 29.0055 315.421 30.5207 312.843 33.551C310.265 36.5361 308.976 40.652 308.976 45.8985C308.976 51.1451 310.242 55.2157 312.775 58.1103C315.353 60.9597 318.836 62.3844 323.223 62.3844C327.52 62.3844 330.754 61.2311 332.925 58.9244C335.141 56.5725 336.475 53.497 336.927 49.6977H324.919V43.1848H345.679V69.3044H337.674L336.995 63.0629C335.457 65.3243 333.535 67.0656 331.228 68.2868C328.922 69.508 325.982 70.1186 322.409 70.1186Z" fill="#8E0077"/>
<path fill-rule="evenodd" clip-rule="evenodd" d="M244.989 61.3043V41.7737C244.989 38.2441 247.851 35.3827 251.38 35.3827C253.145 35.3827 254.576 33.952 254.576 32.1872V32.0643C254.576 30.2316 256.062 28.7458 257.894 28.7458H268.218C270.051 28.7458 271.537 30.2316 271.537 32.0643V32.433C271.537 34.0621 272.857 35.3827 274.486 35.3827C277.745 35.3827 280.386 38.024 280.386 41.2821V61.3043C280.386 65.7226 276.804 69.3043 272.386 69.3043H252.989C248.571 69.3043 244.989 65.7226 244.989 61.3043ZM267.112 30.9582H259.738C258.923 30.9582 258.263 31.6185 258.263 32.433C258.263 33.2476 258.923 33.9079 259.738 33.9079H267.112C267.927 33.9079 268.587 33.2476 268.587 32.433C268.587 31.6185 267.927 30.9582 267.112 30.9582ZM252.363 46.757V57.9301C252.363 60.1392 254.154 61.9301 256.363 61.9301H269.011C271.22 61.9301 273.011 60.1392 273.011 57.9301V46.757C273.011 44.5478 271.22 42.7569 269.011 42.7569H256.363C254.154 42.7569 252.363 44.5478 252.363 46.757Z" fill="#8E0077"/>
<path fill-rule="evenodd" clip-rule="evenodd" d="M355.604 61.3043V41.7737C355.604 38.2441 358.465 35.3827 361.995 35.3827C363.759 35.3827 365.19 33.952 365.19 32.1872V32.0643C365.19 30.2316 366.676 28.7458 368.508 28.7458H378.832C380.665 28.7458 382.151 30.2316 382.151 32.0643V32.433C382.151 34.0621 383.472 35.3827 385.101 35.3827C388.359 35.3827 391 38.024 391 41.2821V61.3043C391 65.7226 387.418 69.3043 383 69.3043H363.604C359.185 69.3043 355.604 65.7226 355.604 61.3043ZM377.726 30.9582H370.352C369.538 30.9582 368.877 31.6185 368.877 32.433C368.877 33.2476 369.538 33.9079 370.352 33.9079H377.726C378.541 33.9079 379.201 33.2476 379.201 32.433C379.201 31.6185 378.541 30.9582 377.726 30.9582ZM362.978 46.757V57.9301C362.978 60.1392 364.768 61.9301 366.978 61.9301H379.626C381.835 61.9301 383.626 60.1392 383.626 57.9301V46.757C383.626 44.5478 381.835 42.7569 379.626 42.7569H366.978C364.768 42.7569 362.978 44.5478 362.978 46.757Z" fill="#8E0077"/>
</svg>
